<?xml version="1.0" encoding="UTF-8"?>
<svg width="133px" height="29px" viewBox="0 0 133 29" version="1.1" xmlns="http://www.w3.org/2000/svg" xmlns:xlink="http://www.w3.org/1999/xlink">
    <!-- Generator: Sketch 43.2 (39069) - http://www.bohemiancoding.com/sketch -->
    <title>Page 1</title>
    <desc>Created with Sketch.</desc>
    <defs>
        <polygon id="path-1" points="0.784957419 0.702823529 20.1145768 0.702823529 20.1145768 4.70149706 0.784957419 4.70149706 0.784957419 0.702823529"></polygon>
        <polygon id="path-3" points="0 17.76395 0 0.32606924 7.62458968 0.32606924 7.62458968 17.76395 2.69244909e-16 17.76395"></polygon>
        <polygon id="path-5" points="16.0029032 4.06366765 16.0029032 0.210079412 0.708503871 0.210079412 0.708503871 4.06366765 16.0029032 4.06366765"></polygon>
    </defs>
    <g id="Page-1" stroke="none" stroke-width="1" fill="none" fill-rule="evenodd">
        <g id="首页2" transform="translate(-78.000000, -16.000000)">
            <g id="Page-1" transform="translate(78.000000, 16.000000)">
                <g id="Group-3" transform="translate(3.432258, 0.150544)">
                    <mask id="mask-2" fill="white">
                        <use xlink:href="#path-1"></use>
                    </mask>
                    <g id="Clip-2"></g>
                    <path d="M20.1145768,4.70149706 C17.616751,2.22967353 14.1759123,0.702055882 10.3729703,0.702055882 C6.64639613,0.702055882 3.26991226,2.17252647 0.784957419,4.55735 C3.04938968,3.77605588 10.5437252,1.72217353 20.1145768,4.70149706" id="Fill-1" fill="#005BAC" mask="url(#mask-2)"></path>
                </g>
                <g id="Group-6" transform="translate(0.000000, 6.974074)">
                    <mask id="mask-4" fill="white">
                        <use xlink:href="#path-3"></use>
                    </mask>
                    <g id="Clip-5"></g>
                    <path d="M7.62458968,1.32009706 C5.8878671,-0.263814706 3.37116387,0.34945 1.66104129,1.07445 C0.601331613,3.01574412 -0.000171612903,5.24021471 -0.000171612903,7.60286176 C-0.000171612903,11.6295971 1.74684774,15.2563029 4.52955097,17.76395 C4.70116387,15.3620676 5.5128929,5.54386176 7.62458968,1.32009706" id="Fill-4" fill="#005BAC" mask="url(#mask-4)"></path>
                </g>
                <path d="M19.4022116,14.0435059 C16.3603729,16.2671235 15.01836,17.1541824 14.7223277,21.1570353 C18.3673858,19.9032118 23.6745148,19.8554471 25.9046245,21.1843294 C26.9900761,19.2242706 27.6113148,16.9708 27.6113148,14.5774471 C27.6113148,11.7806529 26.7686955,9.18344706 25.3245729,7.01356471 C24.6621471,8.07291765 22.0321794,12.1209765 19.4022116,14.0435059" id="Fill-7" fill="#005BAC"></path>
                <path d="M10.368251,23.3206059 C13.4092316,13.4213706 15.9430961,8.4709 21.34118,8.44275294 C15.0189606,5.03354706 10.2189477,8.38219412 10.2189477,8.38219412 C10.2189477,8.38219412 11.1173413,19.2154 8.4281671,27.2176941 C10.0807994,27.9145471 11.8973219,28.2975176 13.8056574,28.2975176 C18.1139994,28.2975176 21.9598445,26.3357529 24.4911348,23.2626059 C22.3717155,23.0715471 15.156251,22.5188412 10.368251,23.3206059" id="Fill-9" fill="#005BAC"></path>
                <polygon id="Fill-11" fill="#005BAC" points="50.148551 6.33138235 33.9929123 6.33138235 33.2927316 10.1849706 49.4869832 10.1849706"></polygon>
                <polygon id="Fill-13" fill="#005BAC" points="38.5972865 11.7861118 36.6563445 22.8436412 42.3041252 22.8436412 44.244209 11.7861118"></polygon>
                <polygon id="Fill-15" fill="#005BAC" points="108.375436 11.7861118 106.433636 22.8436412 112.083133 22.8436412 114.021501 11.7861118"></polygon>
                <path d="M68.6706458,10.1848 C68.4037877,8.01491765 67.2007813,6.33121176 65.0830781,6.33121176 L56.6912071,6.33121176 C55.6649619,6.33121176 54.7116523,6.69882941 53.85702,7.60465294 C53.1619877,8.34074118 52.7200845,9.13312353 52.5201555,10.1848" id="Fill-17" fill="#005BAC"></path>
                <path d="M62.7533471,11.7861118 L61.7331084,17.6807882 C61.608689,18.3878765 61.3486955,18.7742588 60.9067923,18.8902588 L57.3423923,18.8902588 C57.0352052,18.8058176 56.8627342,18.6062294 56.8241213,18.2983176 C56.80696,18.1584353 56.8232632,17.9537294 56.8687406,17.6807882 L57.8984181,11.7861118 L52.2463471,11.7861118 L51.4543535,16.3007294 C51.3162052,17.1536706 51.261289,17.9571412 51.35396,18.7162588 C51.5298632,20.1389647 52.2248955,21.1957588 53.4364826,21.8866412 C54.4335535,22.4512882 55.7137858,22.8436412 57.2737471,22.8436412 L60.2040374,22.8436412 C62.7953923,22.8436412 64.7595019,21.8926118 66.1006568,20.2140235 C66.8403084,19.2860235 67.326831,18.1268765 67.5585084,16.7417 C67.9043084,14.7483765 68.1505729,13.3640529 68.4200052,11.7861118 L62.7533471,11.7861118 Z" id="Fill-19" fill="#005BAC"></path>
                <polygon id="Fill-21" fill="#005BAC" points="87.9208084 10.1848 88.6064019 6.33121176 82.9251568 6.33121176 82.2507181 10.1848 77.86086 6.33121176 72.4155826 6.33121176 71.74286 10.1848"></polygon>
                <polygon id="Fill-23" fill="#005BAC" points="71.4477716 11.7861118 69.5342877 22.8436412 75.1159974 22.8436412 77.0646619 11.7861118 81.3438297 15.4648471 80.0344232 22.8436412 85.724249 22.8436412 87.6531781 11.7861118"></polygon>
                <polygon id="Fill-25" fill="#005BAC" points="106.27661 6.33138235 91.6431781 6.33138235 90.97732 10.1849706 105.615901 10.1849706"></polygon>
                <polygon id="Fill-27" fill="#005BAC" points="105.323901 11.7861118 98.2371465 11.7861118 89.5672626 18.4603765 88.7872819 22.8436412 103.399263 22.8436412 104.174095 18.4603765 96.8771142 18.4603765"></polygon>
                <polygon id="Fill-29" fill="#EF8200" points="114.293593 10.1848 114.966315 6.33121176 109.332264 6.33121176 108.655251 10.1848"></polygon>
                <g id="Group-33" transform="translate(116.696774, 6.121132)">
                    <mask id="mask-6" fill="white">
                        <use xlink:href="#path-5"></use>
                    </mask>
                    <g id="Clip-32"></g>
                    <polygon id="Fill-31" fill="#005BAC" mask="url(#mask-6)" points="15.3350716 4.06366765 16.0035039 0.210079412 1.38380065 0.210079412 0.708503871 4.06366765"></polygon>
                </g>
                <polygon id="Fill-34" fill="#005BAC" points="130.978143 16.2074176 131.748685 11.7857706 117.122117 11.7857706 115.203485 22.8433 129.82662 22.8433 130.567988 18.5640941 121.625239 18.5743294 122.029388 16.2074176"></polygon>
            </g>
        </g>
    </g>
</svg>